<?xml version="1.0" standalone="no"?>
<!DOCTYPE svg PUBLIC "-//W3C//DTD SVG 20010904//EN"
 "http://www.w3.org/TR/2001/REC-SVG-20010904/DTD/svg10.dtd">
<svg version="1.0" xmlns="http://www.w3.org/2000/svg"
 width="718.000000pt" height="718.000000pt" viewBox="0 0 718.000000 718.000000"
 preserveAspectRatio="xMidYMid meet">
<metadata>
Created by potrace 1.14, written by Peter Selinger 2001-2017
</metadata>
<g transform="translate(0.000000,718.000000) scale(0.100000,-0.100000)"
fill="#000000" stroke="none">
<path d="M25 7023 c14 -29 25 -57 25 -62 0 -5 3 -11 8 -13 4 -1 18 -25 32 -53
23 -46 108 -180 137 -215 7 -8 26 -33 43 -55 65 -82 274 -285 295 -285 3 0 11
-4 18 -10 52 -42 76 -60 80 -60 3 0 25 -13 49 -29 62 -41 179 -101 288 -148
87 -37 292 -110 331 -118 9 -2 36 -10 60 -18 60 -20 235 -63 339 -82 95 -18
108 -20 200 -30 36 -3 83 -9 105 -11 22 -3 128 -7 235 -9 107 -2 197 -5 200
-6 3 -1 10 0 15 1 6 1 66 4 135 5 69 2 161 7 205 10 44 4 94 8 110 10 27 2 71
7 175 21 19 2 60 8 90 13 30 5 57 7 59 5 3 -2 6 -37 8 -77 1 -39 5 -85 8 -102
3 -16 8 -43 10 -60 2 -16 7 -43 10 -60 4 -16 8 -39 10 -50 2 -11 4 -20 5 -20
2 0 4 -9 6 -20 11 -75 84 -268 151 -400 89 -174 124 -226 238 -363 26 -32 120
-122 165 -158 19 -16 37 -32 38 -36 2 -5 9 -8 15 -8 7 -1 28 -14 47 -30 19
-17 39 -30 46 -30 6 0 17 -7 24 -15 7 -8 21 -15 31 -15 11 0 19 -4 19 -8 0 -7
96 -52 120 -58 3 0 19 -6 35 -13 17 -7 37 -14 45 -16 8 -2 15 -4 15 -5 0 -2 5
-3 75 -20 106 -27 203 -43 340 -56 168 -16 225 -18 387 -19 99 0 179 -3 177
-6 -4 -6 -133 -46 -174 -53 -14 -2 -36 -7 -50 -10 -67 -16 -192 -30 -267 -31
-29 0 -53 -2 -53 -5 0 -3 -17 -4 -37 -3 -21 2 -81 5 -133 8 -121 6 -318 38
-352 56 -10 5 -18 7 -18 5 0 -20 -358 128 -447 184 -20 13 -24 12 -45 -11 -72
-80 -97 -109 -130 -154 -21 -28 -41 -54 -45 -60 -58 -74 -207 -337 -239 -420
-59 -151 -85 -221 -89 -239 -2 -12 -16 -63 -30 -115 -14 -52 -28 -107 -30
-123 -3 -15 -8 -43 -11 -60 -7 -36 -9 -53 -20 -168 -15 -141 -8 -488 10 -580
3 -14 8 -45 11 -70 4 -41 15 -97 30 -160 4 -14 8 -32 9 -40 3 -21 18 -74 23
-82 2 -4 41 6 86 23 45 17 93 34 107 39 14 5 50 18 80 30 30 12 62 23 70 25
15 4 142 50 170 62 8 3 20 7 25 9 20 6 312 113 550 201 75 28 75 29 324 289
86 91 330 345 521 544 25 26 114 119 198 207 114 119 162 163 185 168 18 4 37
9 42 10 6 2 78 19 160 40 83 20 157 38 165 41 8 2 38 8 65 14 28 6 57 14 65
17 8 3 22 7 31 9 33 7 866 214 894 223 17 5 46 13 65 16 89 18 88 15 24 108
-48 69 -107 146 -149 193 -72 82 -247 248 -283 268 -10 5 -19 12 -22 15 -14
17 -118 91 -128 91 -5 0 -12 4 -14 8 -4 12 -141 92 -156 92 -7 0 -12 3 -12 8
0 4 -15 14 -32 21 -18 8 -67 30 -108 49 -66 30 -207 81 -235 86 -5 1 -15 5
-21 8 -6 4 -22 9 -37 12 -15 3 -35 7 -45 10 -16 5 -36 9 -99 21 -16 3 -39 8
-53 10 -197 40 -535 39 -725 -2 -16 -3 -39 -7 -50 -9 -11 -1 -20 -3 -20 -4 0
-1 -7 -3 -15 -5 -69 -14 -189 -50 -255 -76 -44 -17 -89 -33 -100 -37 -11 -3
-60 -26 -109 -50 -101 -51 -94 -53 -140 38 -67 132 -88 240 -79 420 13 275 6
515 -17 575 -5 14 -7 25 -5 25 11 0 -58 168 -90 223 -19 32 -35 60 -35 63 0
11 -101 117 -151 159 -45 36 -194 99 -211 89 -4 -3 -8 -1 -8 3 0 5 -10 9 -22
10 -13 0 -49 5 -81 10 -59 10 -626 9 -837 -2 -465 -23 -575 -27 -745 -27 -235
-1 -461 12 -650 37 -16 2 -57 6 -90 10 -33 4 -69 9 -80 11 -11 3 -36 7 -55 10
-19 3 -46 7 -60 10 -14 3 -38 7 -55 10 -193 31 -492 135 -581 201 -17 13 -35
23 -41 23 -5 0 -18 9 -28 20 -10 11 -24 20 -31 20 -7 0 -14 4 -16 8 -1 4 -23
23 -47 42 -24 19 -79 71 -123 115 l-79 80 26 -52z"/>
<path d="M570 6015 c0 -5 99 -145 110 -155 3 -3 30 -34 60 -70 64 -76 155
-168 223 -225 26 -22 62 -52 79 -67 17 -16 35 -28 38 -28 4 0 18 -9 31 -20 12
-12 39 -31 59 -42 19 -12 37 -24 40 -27 20 -22 258 -136 354 -170 96 -34 213
-67 286 -81 25 -4 57 -11 71 -14 14 -3 45 -8 70 -10 24 -3 44 -5 44 -6 0 -1
14 -3 30 -5 17 -2 50 -6 75 -9 25 -3 74 -8 110 -12 36 -3 76 -8 90 -10 136
-23 802 -22 839 1 7 4 7 13 1 25 -6 11 -15 29 -20 40 -6 11 -20 46 -31 78 -11
31 -23 64 -27 72 -3 8 -6 20 -7 25 -1 6 -4 20 -9 32 -4 12 -9 32 -12 45 -15
71 -27 135 -28 153 -1 22 1 21 -106 11 -266 -25 -647 -26 -825 -1 -16 2 -55 6
-85 9 -30 4 -66 8 -80 10 -14 2 -47 8 -75 12 -27 4 -54 8 -60 10 -5 1 -27 4
-47 8 -21 3 -59 11 -85 17 -27 6 -59 13 -73 15 -14 3 -43 10 -65 16 -22 6 -44
11 -50 13 -5 1 -17 5 -25 8 -8 3 -35 10 -60 17 -25 6 -52 13 -60 15 -8 2 -15
4 -15 5 0 1 -7 3 -15 5 -76 18 -344 120 -475 180 -33 16 -62 29 -65 29 -3 1
-51 25 -107 54 -57 28 -103 50 -103 47z"/>
<path d="M940 5315 c18 -33 41 -69 51 -81 10 -11 19 -23 19 -27 0 -14 94 -129
168 -206 67 -69 117 -115 188 -171 31 -24 168 -116 184 -123 8 -4 31 -17 50
-29 85 -51 306 -149 375 -165 39 -8 50 -11 50 -13 0 -2 7 -3 55 -15 126 -30
270 -54 350 -60 36 -2 65 -5 65 -5 0 -16 448 -28 590 -16 161 14 208 19 315
36 109 18 140 23 202 36 l28 5 -48 41 c-79 67 -189 187 -239 260 l-47 69 -111
-7 c-60 -4 -132 -8 -160 -10 -76 -4 -473 -3 -530 1 -27 2 -97 7 -155 10 -58 3
-118 8 -135 10 -16 1 -57 6 -91 9 -53 6 -130 18 -249 41 -16 3 -39 9 -50 12
-22 7 -29 9 -60 16 -71 17 -242 80 -335 124 -30 15 -57 28 -60 28 -37 14 -70
31 -70 37 0 4 -5 8 -10 8 -22 0 -293 173 -330 210 -36 36 -39 28 -10 -25z"/>
<path d="M6976 3822 c-2 -1 -34 -4 -72 -7 -38 -3 -87 -8 -109 -10 -22 -2 -58
-6 -80 -9 -22 -2 -71 -7 -110 -11 -75 -6 -116 -10 -208 -20 -32 -4 -82 -8
-110 -10 -29 -2 -74 -7 -102 -10 -27 -3 -75 -7 -105 -10 -30 -3 -73 -7 -95 -9
-22 -3 -71 -8 -110 -12 -38 -3 -81 -8 -95 -9 -14 -1 -63 -6 -110 -10 -47 -5
-89 -9 -95 -10 -5 -1 -25 -3 -42 -3 -29 -2 -37 -9 -65 -59 -18 -32 -33 -60
-33 -63 0 -3 -8 -16 -16 -30 -9 -14 -54 -95 -99 -180 -46 -85 -93 -173 -105
-195 -13 -22 -44 -78 -70 -125 -25 -47 -53 -98 -61 -115 -18 -37 -68 -128 -95
-172 -12 -18 -18 -33 -15 -33 3 0 -6 -16 -19 -36 -14 -20 -25 -40 -25 -45 0
-4 -11 -25 -25 -45 -14 -21 -28 -48 -31 -60 -6 -23 -2 -31 49 -85 15 -16 27
-34 27 -39 0 -4 3 -10 8 -12 5 -2 115 -132 212 -251 8 -10 22 -27 30 -37 8
-10 29 -34 45 -55 17 -20 40 -48 53 -63 13 -15 35 -43 50 -62 15 -19 34 -42
42 -50 9 -8 23 -24 31 -36 8 -11 34 -44 59 -73 53 -62 67 -79 100 -122 14 -18
30 -37 35 -43 6 -6 30 -36 55 -66 25 -30 53 -64 62 -75 28 -33 52 -63 73 -89
11 -14 35 -42 53 -63 19 -21 40 -48 48 -59 16 -23 15 -23 555 -10 180 4 215
13 261 64 56 63 64 127 33 262 -3 14 -7 58 -9 98 -4 66 -1 80 25 132 38 73 33
100 -30 143 -25 17 -47 30 -48 29 -5 -4 -103 53 -103 61 0 4 12 7 28 8 15 0
34 2 42 4 19 4 100 17 120 20 8 0 39 9 68 19 65 22 74 40 56 117 -7 31 -16 82
-19 115 -4 32 -9 62 -12 67 -3 5 1 7 8 6 12 -3 42 2 104 16 107 25 195 79 195
120 0 12 -16 71 -36 131 -19 60 -41 132 -49 159 -8 28 -35 122 -61 210 -42
144 -47 171 -47 265 -1 58 2 121 7 140 4 19 7 42 8 50 0 8 6 44 13 80 7 36 16
83 19 105 3 22 8 51 11 65 3 14 8 44 11 67 l6 43 -42 -3 c-23 -1 -43 -3 -44
-5z"/>
<path d="M4327 2428 c-24 -68 -44 -137 -53 -183 -2 -11 -6 -31 -9 -45 -23
-111 -26 -362 -4 -480 7 -41 14 -79 15 -85 1 -5 3 -13 4 -17 1 -5 3 -11 4 -15
2 -7 25 -83 31 -103 1 -3 5 -14 9 -25 4 -11 11 -29 15 -40 27 -71 123 -246
169 -307 76 -101 202 -225 295 -292 44 -31 143 -87 220 -125 78 -38 205 -99
282 -136 77 -37 228 -110 335 -162 107 -52 247 -120 310 -150 63 -31 161 -78
218 -106 56 -27 105 -48 108 -45 2 3 -16 68 -42 144 -25 77 -47 146 -49 155
-2 8 -10 32 -19 52 -8 21 -15 41 -16 45 0 10 -139 432 -150 457 -5 11 -11 32
-14 47 -4 15 -11 40 -18 55 -14 34 -13 31 -23 68 -4 17 -12 36 -18 43 -5 6 -6
12 -2 12 10 0 -33 40 -82 77 -21 15 -40 31 -43 34 -3 3 -34 30 -70 60 -36 29
-67 55 -70 58 -3 4 -27 24 -55 46 -27 21 -52 42 -55 45 -3 3 -54 46 -115 95
-60 50 -121 100 -135 112 -14 11 -59 49 -100 83 -41 34 -89 73 -106 88 -17 15
-40 34 -50 42 -41 32 -189 155 -194 160 -3 4 -43 37 -90 76 -47 38 -90 73 -97
79 -6 5 -30 26 -54 45 -23 19 -47 40 -53 45 -6 6 -47 39 -91 75 -44 36 -86 70
-93 77 -7 7 -15 13 -16 13 -2 0 -15 -33 -29 -72z"/>
</g>
</svg>
