<svg xmlns="http://www.w3.org/2000/svg" viewBox="0 0 850.39 850.39" style='color:#FFFF'>
  <path
    d="M54.37,69.61A104.43,104.43,0,0,0,78.24,90.85c9.41,6,22.64,12.37,53.41,17.4A378.5,378.5,0,0,0,193,113c28.88.11,39.17-2.18,85-2.9,27.62-.44,42.52.1,54.86,10.68,9.83,8.43,14.27,20,15.56,23.47,4.69,12.62,4.37,24.66,4,40.35-.34,12.77-1.7,17.6.52,26.9a59.42,59.42,0,0,0,8.32,18.93,150.93,150.93,0,0,1,75.55-18.93,154,154,0,0,1,127.12,72.8L448.66,313l-80.84,84.4L284.35,427.9c-4.92-18-15.71-67.34,7.51-119.47a167.18,167.18,0,0,1,30.87-46.29,134.83,134.83,0,0,0,113.93,11.47,204.33,204.33,0,0,1-27-.15c-22.86-1.63-44.86-3-66.32-16.07-25.42-15.41-36.64-38.83-41.54-49a130.22,130.22,0,0,1-12.66-53,336.55,336.55,0,0,1-52.22,4.75c-20.57.25-47.34.59-79.57-8.8-21.82-6.36-57.76-16.83-84.21-49.75A128.48,128.48,0,0,1,54.37,69.61Z"
    fill="currentColor"
  />
  <path
    d="M94.73,145.44a292.35,292.35,0,0,0,79.64,29.67,292.54,292.54,0,0,0,98.9,3.95A106.65,106.65,0,0,0,278,200.43,105,105,0,0,0,284,214.67a305.94,305.94,0,0,1-60.53,0c-25.47-2.53-48.31-4.8-73.19-17.8C137.84,190.39,114.53,175.8,94.73,145.44Z"
    fill="currentColor"
  />
  <path
    d="M119.53,192.27a171.93,171.93,0,0,0,51.88,28.93c22.1,7.62,40.26,8.66,61.91,9.89a359.14,359.14,0,0,0,57.95-1.39,99.39,99.39,0,0,0,24.33,26.71,243.74,243.74,0,0,1-75.16,5.34c-18.66-1.61-41-3.76-66.07-16.62-21.62-11.09-34.14-24.46-37.18-27.79A122.57,122.57,0,0,1,119.53,192.27Z"
    fill="currentColor"
  />
  <path
    d="M367.69,399A102.13,102.13,0,0,0,360,448.6a100.76,100.76,0,0,0,21.1,52.49,96.78,96.78,0,0,0,26.38,22.68l99.16,48q-13.05-39.57-26.11-79.12Z"
    fill="currentColor"
  />
  <path
    d="M404.35,398.49,450,314.36l112.61-10.94-5.14,29.93a56.71,56.71,0,0,0,0,18.07c6.22,21.9,10.69,37.19,12.66,42.19.38,1,1.51,3.69.4,6.2a7.67,7.67,0,0,1-4.09,3.56c-6,2.82-13.34,4.16-17.28,4.75a85.53,85.53,0,0,0,1.19,9.76c1.14,6.31,2.09,7.54,1.19,9.36-.44.88-1.75,2.78-14.9,4.88-3.71.59-6.84,1-9.1,1.19,1.53.92,4,2.38,7.12,4.08,5.94,3.26,7.59,3.78,8.4,5.56.4.86,1.57,4.14-3.52,10.66a59.23,59.23,0,0,0,.46,10.46c.94,7.06,2.53,9.26,1.65,13.94a14.82,14.82,0,0,1-4.49,8.57,14.18,14.18,0,0,1-7.65,3.43l-48.92,1.05Z"
    fill="currentColor"
  />
  <path
    d="M93,698.16V624.78a4.27,4.27,0,0,0-.89-2.92A6.44,6.44,0,0,0,89,620.21v-2h27v2a6,6,0,0,0-3.17,1.62,4.44,4.44,0,0,0-.89,2.95v73.38a4.42,4.42,0,0,0,.92,3,6.12,6.12,0,0,0,3.14,1.62v2H89v-2a6.44,6.44,0,0,0,3.17-1.65A4.37,4.37,0,0,0,93,698.16Z"
    fill="currentColor"
  />
  <path
    d="M206.52,669.66v28.56a4.33,4.33,0,0,0,.92,2.95,6.16,6.16,0,0,0,3.14,1.62v2h-27v-2a6.48,6.48,0,0,0,3.18-1.65,4.32,4.32,0,0,0,.89-2.92V624.84a4.42,4.42,0,0,0-.89-3,6.48,6.48,0,0,0-3.18-1.65v-2h54.09a70.1,70.1,0,0,1,15,1.27,26.21,26.21,0,0,1,9.81,4.38,22,22,0,0,1,6.85,8.5,27.67,27.67,0,0,1,2.48,11.56,25.82,25.82,0,0,1-4.7,15.36,22.09,22.09,0,0,1-10.76,8q-6.7,2.37-18.69,2.38Zm0-14.28H235.4q8.64,0,12.13-1.85a8.76,8.76,0,0,0,3.58-3.84,12.86,12.86,0,0,0,0-11.55,8.87,8.87,0,0,0-3.58-3.84q-3.43-1.84-12.13-1.84H206.52Z"
    fill="currentColor"
  />
  <path
    d="M415.63,625.52l-10.35,20.4-1.78-1c0-.42.07-.76.07-1q0-2.16-3.69-4.64-11.29-7.86-26.53-7.87A38.91,38.91,0,0,0,361.48,633a14.17,14.17,0,0,0-6.06,3.8,8,8,0,0,0-2.32,5.52q0,4.89,5.91,6.66,3,.88,13.07,1.9l10,1a81.68,81.68,0,0,1,14.38,2.6,33.86,33.86,0,0,1,9.74,4.63,21.71,21.71,0,0,1,6.82,8.18,24.17,24.17,0,0,1,2.51,10.84,24.71,24.71,0,0,1-5.9,16.24Q404.26,700.9,393,704a66.58,66.58,0,0,1-18,2.35,76,76,0,0,1-34-8.26,18.67,18.67,0,0,0-4.26-1.65,5.34,5.34,0,0,0-2.6,1.4l-1.84-1,9.39-21.27,1.84.89v.83a7,7,0,0,0,2.73,5.27q4.13,3.67,12.76,6.34a55.52,55.52,0,0,0,16.38,2.67,33.21,33.21,0,0,0,14.41-2.85,14,14,0,0,0,5.27-4.21,9.06,9.06,0,0,0,2-5.48c0-2.88-1.55-4.92-4.64-6.15-2.16-.84-6.52-1.63-13.07-2.34l-9.78-1a133.92,133.92,0,0,1-13.9-1.93,36,36,0,0,1-8.13-3,21,21,0,0,1-9.07-8.58,23.09,23.09,0,0,1-3-11.81,24,24,0,0,1,7.56-18.17q9.9-9.47,29.7-9.47a67.78,67.78,0,0,1,15.49,1.69,117.5,117.5,0,0,1,17.9,6.22,19.67,19.67,0,0,0,4.51,1.47,5.24,5.24,0,0,0,3.11-1.47Z"
    fill="currentColor"
  />
  <path
    d="M568.81,624.84V673.4q0,13.79-5.08,20.63Q554.6,706.35,526,706.35q-20.69,0-31.67-6.67a20.3,20.3,0,0,1-8.89-10.54A45.86,45.86,0,0,1,483,673.4V624.84a4.42,4.42,0,0,0-.89-3,6.44,6.44,0,0,0-3.17-1.65v-2h27v2a6.06,6.06,0,0,0-3.16,1.62,4.49,4.49,0,0,0-.91,3v43.23a53.91,53.91,0,0,0,.83,11.08,12.7,12.7,0,0,0,3.11,6q6.09,6.47,20.82,6.47t20.88-6.47a13,13,0,0,0,3.05-6,53.91,53.91,0,0,0,.83-11.08V624.84a4.42,4.42,0,0,0-.89-3,6.43,6.43,0,0,0-3.18-1.65v-2h25.52v2a6.44,6.44,0,0,0-3.17,1.65A4.37,4.37,0,0,0,568.81,624.84Z"
    fill="currentColor"
  />
  <path
    d="M692.06,704.82,660.1,645v53.2a4.42,4.42,0,0,0,.89,3,6.44,6.44,0,0,0,3.17,1.65v2H638.71v-2a6.44,6.44,0,0,0,3.17-1.65,4.37,4.37,0,0,0,.89-3V624.78a4.27,4.27,0,0,0-.89-2.92,6.44,6.44,0,0,0-3.17-1.65v-2h33.4v2q-3,.76-3,3.49a6.35,6.35,0,0,0,.89,2.92l23.64,44.79,24-44a10.56,10.56,0,0,0,1.59-4.25q0-2.61-3.17-2.92v-2h32.76v2a6.48,6.48,0,0,0-3.18,1.65,4.32,4.32,0,0,0-.88,2.92v73.38a4.42,4.42,0,0,0,.88,3,6.48,6.48,0,0,0,3.18,1.65v2h-27v-2a6.12,6.12,0,0,0,3.14-1.62,4.42,4.42,0,0,0,.92-3V645Z"
    fill="currentColor"
  />
  <path
    d="M165.09,744.86H142v14.41a2,2,0,0,0,.42,1.36,2.74,2.74,0,0,0,1.45.75v.94H131.43v-.94a3,3,0,0,0,1.47-.76,2,2,0,0,0,.41-1.35V725.38a2,2,0,0,0-.41-1.35,3,3,0,0,0-1.47-.76v-.94h12.48v.94a2.73,2.73,0,0,0-1.46.74,2,2,0,0,0-.41,1.37v12.89h23.05V725.38a2,2,0,0,0-.41-1.37,2.73,2.73,0,0,0-1.46-.74v-.94H175.7v.94a2.92,2.92,0,0,0-1.47.76,2,2,0,0,0-.41,1.35v33.89a2,2,0,0,0,.41,1.35,3,3,0,0,0,1.47.76v.94H163.22v-.94a2.78,2.78,0,0,0,1.45-.75,2,2,0,0,0,.42-1.36Z"
    fill="currentColor"
  />
  <path
    d="M200.64,728.8a20.86,20.86,0,0,1,13.05,4q6.24,4.8,6.25,13.39A15.42,15.42,0,0,1,213.69,759q-5.16,4-13,4t-13-4a15.66,15.66,0,0,1-6.27-13.13q0-8.4,6.27-13.12A21.35,21.35,0,0,1,200.64,728.8Zm0,6.21a11.09,11.09,0,0,0-8.27,3.26,11.31,11.31,0,0,0,0,15.26,12.12,12.12,0,0,0,16.58,0,10.26,10.26,0,0,0,3-7.47,10.54,10.54,0,0,0-3-7.79A11.53,11.53,0,0,0,200.67,735Zm-2.41-9.2h-7.33V725a2.14,2.14,0,0,0,.91-.16,10.07,10.07,0,0,0,1.11-1.07l3.93-4.36a1.11,1.11,0,0,0,.32-.73c0-.34-.32-.5-1-.5v-.79h9.26v.79c-.58.06-.88.23-.88.52a1.42,1.42,0,0,0,.47.83l4.4,4.89a1.71,1.71,0,0,0,1.32.58v.79h-8.41V725c.6-.06.91-.2.91-.44a2.35,2.35,0,0,0-.47-.67l-2.46-3-2.7,3.11a.73.73,0,0,0-.26.53c0,.29.28.45.85.49Z"
    fill="currentColor"
  />
  <path
    d="M242.93,735.45V759.3a2.1,2.1,0,0,0,.41,1.39,3.14,3.14,0,0,0,1.47.81v.82h-11.6v-.82a2.86,2.86,0,0,0,1.45-.76,2.14,2.14,0,0,0,.42-1.41V735.45h-9.67a2.13,2.13,0,0,0-1.42.42,3,3,0,0,0-.77,1.46h-.79v-9.7h.79a2.81,2.81,0,0,0,.74,1.45,2.14,2.14,0,0,0,1.43.43H252.6a2.15,2.15,0,0,0,1.42-.41,3,3,0,0,0,.78-1.47h.79v9.7h-.79a3,3,0,0,0-.78-1.46,2.09,2.09,0,0,0-1.42-.42Z"
    fill="currentColor"
  />
  <path
    d="M269.07,748.37v8H289.9a2.11,2.11,0,0,0,1.39-.4,2.87,2.87,0,0,0,.77-1.47h.83v9.69h-.83a2.72,2.72,0,0,0-.76-1.45,2.11,2.11,0,0,0-1.4-.42H259.34v-.82a2.82,2.82,0,0,0,1.45-.76,2.14,2.14,0,0,0,.43-1.41V732.49a2,2,0,0,0-.41-1.37,3.13,3.13,0,0,0-1.47-.79v-.82H289a2.17,2.17,0,0,0,1.42-.41,3,3,0,0,0,.78-1.47H292v9.7h-.79a3,3,0,0,0-.78-1.47,2.17,2.17,0,0,0-1.42-.41H269.07v7.21h12.36a2.1,2.1,0,0,0,1.39-.41,3.13,3.13,0,0,0,.81-1.46h.79v9.46h-.79a3.05,3.05,0,0,0-.78-1.46,2.09,2.09,0,0,0-1.42-.42Z"
    fill="currentColor"
  />
  <path
    d="M307.56,756.37h18.37a2.1,2.1,0,0,0,1.41-.4,3.21,3.21,0,0,0,.79-1.47h.79v9.69h-.79a2.88,2.88,0,0,0-.78-1.46,2.15,2.15,0,0,0-1.42-.41H297.84v-.82a2.86,2.86,0,0,0,1.45-.76,2.14,2.14,0,0,0,.42-1.41V732.49a2,2,0,0,0-.41-1.37,3,3,0,0,0-1.46-.79v-.82h11.6v.82a2.92,2.92,0,0,0-1.47.77,2.11,2.11,0,0,0-.41,1.39Z"
    fill="currentColor"
  />
  <path
    d="M349.16,759.33V732.49a2,2,0,0,0-.41-1.37,3,3,0,0,0-1.46-.79v-.82h19.25A24.31,24.31,0,0,1,376,731a13.09,13.09,0,0,1,7,7,19.53,19.53,0,0,1,1.5,7.94q0,8.42-5,12.75a13.77,13.77,0,0,1-5.32,2.79,28.41,28.41,0,0,1-7.63.87H347.29v-.82a2.82,2.82,0,0,0,1.45-.76A2.14,2.14,0,0,0,349.16,759.33Zm7.86-3h8.38c3.84,0,6.64-.88,8.37-2.64s2.73-4.44,2.73-7.82-.91-6-2.73-7.82a7.85,7.85,0,0,0-3.34-2,16.9,16.9,0,0,0-5-.63H357Z"
    fill="currentColor"
  />
  <path
    d="M399.23,748.37v8h20.83a2.1,2.1,0,0,0,1.39-.4,2.8,2.8,0,0,0,.78-1.47h.82v9.69h-.82a2.79,2.79,0,0,0-.76-1.45,2.12,2.12,0,0,0-1.41-.42H389.51v-.82a2.86,2.86,0,0,0,1.45-.76,2.14,2.14,0,0,0,.42-1.41V732.49a2,2,0,0,0-.41-1.37,3,3,0,0,0-1.46-.79v-.82h29.64a2.2,2.2,0,0,0,1.43-.41,3,3,0,0,0,.77-1.47h.79v9.7h-.79a2.87,2.87,0,0,0-.77-1.47,2.2,2.2,0,0,0-1.43-.41H399.23v7.21H411.6a2.11,2.11,0,0,0,1.39-.41,3,3,0,0,0,.8-1.46h.79v9.46h-.79a3,3,0,0,0-.77-1.46,2.13,2.13,0,0,0-1.42-.42Z"
    fill="currentColor"
  />
  <path
    d="M459.56,732.46l-4,7.65-.7-.38a2,2,0,0,0-.62-1.52,12.68,12.68,0,0,0-4.92-2.46,22.86,22.86,0,0,0-6.59-1,14.73,14.73,0,0,0-5,.79c-2.11.76-3.17,1.87-3.17,3.31a2.09,2.09,0,0,0,1.53,2,24.47,24.47,0,0,0,5.89,1l4.63.35c4,.31,7.12,1.09,9.22,2.34a9,9,0,0,1,4.34,7.77,9,9,0,0,1-4.51,7.91Q451.36,763,444,763a34.35,34.35,0,0,1-14.33-3.13,2,2,0,0,0-.79-.21,1.38,1.38,0,0,0-1.08.7l-.74-.29,3.37-8,.74.3v.23a1.66,1.66,0,0,0,.58,1.29,12.87,12.87,0,0,0,5.07,2.24,27.57,27.57,0,0,0,7.12,1,17.49,17.49,0,0,0,5.57-.82q3-1,3-3.22a2.58,2.58,0,0,0-2.11-2.49,25.19,25.19,0,0,0-5.06-.79l-4.6-.38a40.74,40.74,0,0,1-5.69-.76,11.41,11.41,0,0,1-3.43-1.38,8.2,8.2,0,0,1-2.93-3.19,9.49,9.49,0,0,1-1.05-4.43,9.1,9.1,0,0,1,4.63-8.23,19.65,19.65,0,0,1,10.43-2.58,25.14,25.14,0,0,1,6.28.75,41.48,41.48,0,0,1,7,2.62,5,5,0,0,0,1.67.56,2.1,2.1,0,0,0,1.2-.65Z"
    fill="currentColor"
  />
  <path
    d="M496.83,751.93l8-17.36a5.88,5.88,0,0,0,.7-2.22c0-1-.63-1.65-1.9-2v-.82h12.68v.82a4.08,4.08,0,0,0-1.7.93,9.77,9.77,0,0,0-1.34,2.29l-11.5,24.17a5.08,5.08,0,0,0-.61,2c0,1,.64,1.59,1.93,1.85v.79H490.18v-.79c1.27-.26,1.91-.87,1.91-1.85a5.14,5.14,0,0,0-.62-2L480,733.55a9.59,9.59,0,0,0-1.34-2.3,4,4,0,0,0-1.71-.92v-.82h13.15v.82c-1.25.39-1.88,1.06-1.88,2a6.37,6.37,0,0,0,.73,2.22Z"
    fill="currentColor"
  />
  <path
    d="M529.37,748.37v8H550.2a2.1,2.1,0,0,0,1.39-.4,3,3,0,0,0,.78-1.47h.82v9.69h-.82a2.86,2.86,0,0,0-.76-1.45,2.14,2.14,0,0,0-1.41-.42H519.64v-.82a2.78,2.78,0,0,0,1.45-.76,2.09,2.09,0,0,0,.43-1.41V732.49a2,2,0,0,0-.41-1.37,3.08,3.08,0,0,0-1.47-.79v-.82h29.65a2.15,2.15,0,0,0,1.42-.41,3,3,0,0,0,.78-1.47h.79v9.7h-.79a3,3,0,0,0-.78-1.47,2.15,2.15,0,0,0-1.42-.41H529.37v7.21h12.36a2.1,2.1,0,0,0,1.39-.41,3,3,0,0,0,.81-1.46h.79v9.46h-.79a3,3,0,0,0-.78-1.46,2.09,2.09,0,0,0-1.42-.42Z"
    fill="currentColor"
  />
  <path
    d="M567.16,740.7v18.6a2.07,2.07,0,0,0,.43,1.41,2.94,2.94,0,0,0,1.45.79v.82h-10.9v-.82a2.82,2.82,0,0,0,1.45-.76,2.14,2.14,0,0,0,.42-1.41V732.49a2,2,0,0,0-.41-1.37,3,3,0,0,0-1.46-.79v-.82h12.6v.82q-1.29.31-1.29,1.14a2.56,2.56,0,0,0,.94,1.64L588,750.57V732.49a2.06,2.06,0,0,0-.41-1.39,2.88,2.88,0,0,0-1.46-.77v-.82H597v.82a2.87,2.87,0,0,0-1.47.77,2.11,2.11,0,0,0-.41,1.39V759.3a2.1,2.1,0,0,0,.41,1.39,3,3,0,0,0,1.47.81v.82H585.26v-.82c.86-.18,1.29-.53,1.29-1.08a1.32,1.32,0,0,0-.35-.84c-.23-.29-.77-.86-1.61-1.71Z"
    fill="currentColor"
  />
  <path
    d="M620.86,735.45V759.3a2.1,2.1,0,0,0,.41,1.39,3.14,3.14,0,0,0,1.47.81v.82h-11.6v-.82a2.86,2.86,0,0,0,1.45-.76,2.14,2.14,0,0,0,.42-1.41V735.45h-9.67a2.13,2.13,0,0,0-1.42.42,3,3,0,0,0-.77,1.46h-.79v-9.7h.79a2.81,2.81,0,0,0,.74,1.45,2.14,2.14,0,0,0,1.43.43h27.21a2.17,2.17,0,0,0,1.42-.41,3,3,0,0,0,.78-1.47h.79v9.7h-.79a3.05,3.05,0,0,0-.78-1.46,2.09,2.09,0,0,0-1.42-.42Z"
    fill="currentColor"
  />
  <path
    d="M647,748.37v8h20.83a2.11,2.11,0,0,0,1.39-.4,2.87,2.87,0,0,0,.77-1.47h.82v9.69H670a2.79,2.79,0,0,0-.76-1.45,2.11,2.11,0,0,0-1.4-.42H637.27v-.82a2.82,2.82,0,0,0,1.45-.76,2.14,2.14,0,0,0,.43-1.41V732.49a2,2,0,0,0-.42-1.37,3,3,0,0,0-1.46-.79v-.82h29.65a2.17,2.17,0,0,0,1.42-.41,3,3,0,0,0,.78-1.47h.79v9.7h-.79a3,3,0,0,0-.78-1.47,2.17,2.17,0,0,0-1.42-.41H647v7.21h12.36a2.1,2.1,0,0,0,1.39-.41,3.13,3.13,0,0,0,.81-1.46h.79v9.46h-.79a3.05,3.05,0,0,0-.78-1.46,2.11,2.11,0,0,0-1.42-.42Z"
    fill="currentColor"
  />
  <path
    d="M707.32,732.46l-4,7.65-.7-.38a2,2,0,0,0-.61-1.52,12.8,12.8,0,0,0-4.93-2.46,22.76,22.76,0,0,0-6.59-1,14.81,14.81,0,0,0-5,.79c-2.11.76-3.16,1.87-3.16,3.31a2.1,2.1,0,0,0,1.52,2,24.57,24.57,0,0,0,5.89,1l4.63.35q6.06.46,9.23,2.34a9,9,0,0,1,2.9,2.82,8.8,8.8,0,0,1,1.43,5,9,9,0,0,1-4.51,7.91q-4.3,2.78-11.66,2.78a34.3,34.3,0,0,1-14.32-3.13,2.07,2.07,0,0,0-.79-.21,1.38,1.38,0,0,0-1.09.7l-.73-.29,3.37-8,.73.3v.23a1.67,1.67,0,0,0,.59,1.29,12.74,12.74,0,0,0,5.06,2.24,27.62,27.62,0,0,0,7.12,1,17.49,17.49,0,0,0,5.57-.82q3-1,3.05-3.22a2.59,2.59,0,0,0-2.11-2.49,25.46,25.46,0,0,0-5.07-.79l-4.6-.38a40.34,40.34,0,0,1-5.68-.76,11.3,11.3,0,0,1-3.43-1.38A8.12,8.12,0,0,1,676.5,744a9.5,9.5,0,0,1-1.06-4.43,9.12,9.12,0,0,1,4.63-8.23,19.67,19.67,0,0,1,10.43-2.58,25.22,25.22,0,0,1,6.29.75,41.74,41.74,0,0,1,7,2.62,5.09,5.09,0,0,0,1.67.56,2.09,2.09,0,0,0,1.21-.65Z"
    fill="currentColor"
  />
</svg>
